<svg id="cloud-icon" width="100" height="100" viewBox="0 0 100 100" fill="none" xmlns="http://www.w3.org/2000/svg">
<path d="M8.57876 70.711C-2.8596 59.2726 -2.85958 40.7274 8.57878 29.289L29.289 8.57876C40.7274 -2.8596 59.2726 -2.85958 70.711 8.57878L91.4212 29.289C102.86 40.7274 102.86 59.2726 91.4212 70.711L70.711 91.4212C59.2726 102.86 40.7274 102.86 29.289 91.4212L8.57876 70.711Z" fill="#2A60CA"/>
<path d="M67.2743 43.9985C67.2462 43.9985 67.2148 44.0014 67.1866 44.0014C66.3298 35.7123 59.2505 29.2429 50.6444 29.2429C43.8192 29.2429 37.962 33.3176 35.3999 39.1409C35.1534 39.1254 34.912 39.1007 34.6609 39.1007C28.231 39.1007 23.0156 44.2624 23.0156 50.6291C23.0156 56.9928 28.231 62.1545 34.6609 62.1545H50.6445H64.1583H70.3872C71.7837 61.673 73.0265 60.881 74.0337 59.8562C75.6874 58.1729 76.7135 55.8779 76.7135 53.3435C76.7135 48.1819 72.4867 43.9985 67.2743 43.9985Z" fill="white"/>
</svg>
